<?xml version="1.0" encoding="utf-8"?>
<!-- Generator: Adobe Illustrator 24.2.1, SVG Export Plug-In . SVG Version: 6.00 Build 0)  -->
<svg version="1.1" id="Layer_1" xmlns="http://www.w3.org/2000/svg" xmlns:xlink="http://www.w3.org/1999/xlink" x="0px" y="0px"
	 viewBox="0 0 700 700" style="enable-background:new 0 0 700 700;" xml:space="preserve">
<style type="text/css">
	.st0{fill:#FF7900;}
	.st1{fill:#0C0CAA;}
</style>
<g>
	<path class="st0" d="M488.31,343.43c-0.06,1.1-0.12,2.19-0.2,3.29l-12.78,3l-5.22,1.21c-12.84,3.06-25.11,7.97-36.45,14.6h-0.06
		c-2.08,1.21-4.13,2.45-6.15,3.78c1.53-6.12,2.31-12.5,2.31-19.05c0-44.04-35.7-79.74-79.77-79.74c-44.04,0-79.74,35.7-79.74,79.74
		c0,6.55,0.78,12.93,2.31,19.05c-2.05-1.36-4.13-2.63-6.23-3.84c-11.37-6.58-23.64-11.49-36.48-14.55l-5.25-1.3l-12.76-2.6
		c-0.06-1.01-0.12-2.02-0.14-3.03c3.17-73.53,63.95-132.44,138.27-132.44C424.04,211.57,484.82,270.19,488.31,343.43z"/>
	<path class="st1" d="M487.63,365.08c-0.49,4.88-1.27,9.64-2.34,14.46l-0.98,4.07c-0.61,2.42-1.24,4.73-1.93,7.1
		c-6.29,20.49-17.46,39.42-32.52,55.15l-0.61,0.55c-1.07,0.98-2.16,2.08-3.09,3.15l-0.61,0.61c-17.63,16.77-39.36,28.63-62.8,34.23
		c-10.3,2.66-21.36,4.04-32.76,4.04c-11.37,0-22.48-1.39-32.9-4.04c-23.49-5.63-45.28-17.55-62.74-34.37l-0.69-0.66l-0.61-0.78
		l-0.84-0.55l-0.52-0.55c-15.79-15.84-27.5-35.35-34.05-56.77c-0.32-0.81-0.55-1.67-0.78-2.51c-0.29-0.87-0.46-1.76-0.64-2.6
		c-0.26-0.61-0.38-1.3-0.58-1.9v-0.09l-3.29-18.53l13.36,2.89l5.22,1.27c12.76,3,24.96,7.94,36.19,14.46
		c6,3.46,11.75,7.36,17.14,11.72c14.37,20.89,38.47,34.6,65.74,34.6c26.49,0,49.96-12.9,64.44-32.76
		c4.39-3.67,8.95-7.01,13.71-10.07c0.14-0.06,0.29-0.17,0.4-0.23c0.14-0.12,0.26-0.17,0.38-0.23c1.56-0.98,3.12-1.9,4.68-2.83h0.06
		c2.89-1.67,5.77-3.23,8.69-4.68c1.47-0.72,2.97-1.39,4.44-2.08c7.47-3.29,15.3-5.95,23.32-7.85l5.22-1.24L487.63,365.08z"/>
	<circle class="st1" cx="350" cy="350.27" r="46.52"/>
</g>
</svg>
