<?xml version="1.0" encoding="utf-8"?>
<!-- Generator: Adobe Illustrator 24.2.1, SVG Export Plug-In . SVG Version: 6.00 Build 0)  -->
<svg version="1.1" id="Layer_1" xmlns="http://www.w3.org/2000/svg" xmlns:xlink="http://www.w3.org/1999/xlink" x="0px" y="0px"
	 viewBox="0 0 700 700" style="enable-background:new 0 0 700 700;" xml:space="preserve">
<style type="text/css">
	.st0{fill:#666666;}
	.st1{fill:#FF7900;}
	.st2{fill:#0C0CAA;}
</style>
<g>
	<g>
		<g>
			<path class="st0" d="M422.15,351.71l0.23,0.28v-0.46L422.15,351.71z"/>
			<path class="st0" d="M426.34,390.27v1.98h-12.76c-2.49-0.28-4.73-1.38-6.42-3.04c-2.01-1.97-3.26-4.72-3.26-7.75v-67.27
				c0-1.1-0.23-1.95-0.69-2.59c-0.03-0.09-0.09-0.18-0.16-0.26c-0.58-0.66-1.62-1.2-3.11-1.61v-1.98h11.87
				c5.7,0.13,10.29,4.65,10.56,10.3v33.47l-0.23,0.18l0.23,0.28v33.76c0,1.14,0.24,2.02,0.74,2.69c0.03,0.09,0.08,0.18,0.16,0.26
				C423.88,389.37,424.9,389.89,426.34,390.27z"/>
		</g>
		<polygon class="st0" points="483.86,392.25 460.46,392.25 428.73,359.65 422.38,353.12 428.73,345.82 461.85,307.75 
			485.25,307.75 452.12,345.82 445.76,353.12 		"/>
	</g>
	<g>
		<path class="st0" d="M298.72,331.02c-1.17-10.03-8.25-17.96-17.34-20.73c-0.02,0-0.04-0.02-0.06-0.02
			c-2.43-0.49-5.39-0.81-8.91-0.96c-1.47-0.05-3.05-0.09-4.72-0.09h-51.83v1.94c1.47,0.41,2.48,0.94,3.05,1.6
			c0.56,0.63,0.87,1.59,0.87,2.85v65.97c0.21,3.47,1.97,6.53,4.63,8.5c1.6,1.2,3.52,1.99,5.64,2.18h11.74v-1.94
			c-1.19-0.32-2.1-0.71-2.69-1.24c-0.11-0.09-0.23-0.21-0.32-0.32c-0.58-0.67-0.88-1.61-0.88-2.82v-27.39h29.8
			c1.6,0,3.14-0.03,4.58-0.09h0.06c3.62-0.17,6.8-0.55,9.49-1.13C292.79,353.8,300.11,342.9,298.72,331.02z M281.61,336.72
			c-0.21,0.94-0.55,1.84-0.99,2.7c-0.87,1.69-2.01,2.91-3.44,3.69c-2.22,1.17-6.11,1.77-11.62,1.77h-27.67V322.9h27.67
			c5.56,0,9.43,0.58,11.62,1.77c1.42,0.76,2.57,1.99,3.44,3.69c0.41,0.78,0.73,1.59,0.94,2.46c0.26,0.98,0.37,1.99,0.37,3.05
			C281.93,334.86,281.82,335.8,281.61,336.72z"/>
	</g>
	<g>
		<path class="st0" d="M164.76,307.75c-23.33,0-42.25,18.92-42.25,42.25c0,23.33,18.92,42.25,42.25,42.25
			c23.33,0,42.25-18.92,42.25-42.25C207.01,326.67,188.09,307.75,164.76,307.75z M164.4,373.45c-12.93-0.2-23.29-10.88-23.09-23.81
			c0.2-12.93,10.88-23.29,23.81-23.09c12.93,0.2,23.29,10.88,23.09,23.81C188.02,363.3,177.33,373.65,164.4,373.45z"/>
	</g>
	<g>
		<path class="st0" d="M349.98,307.75c-23.33,0-42.24,18.92-42.24,42.25c0,23.33,18.91,42.25,42.24,42.25
			c23.34,0,42.25-18.92,42.25-42.25C392.23,326.67,373.32,307.75,349.98,307.75z M349.62,373.45c-12.92-0.2-23.29-10.88-23.08-23.81
			c0.2-12.93,10.88-23.29,23.81-23.09c12.92,0.2,23.29,10.88,23.08,23.81C373.23,363.3,362.55,373.65,349.62,373.45z"/>
	</g>
	<path class="st1" d="M577.49,347.99c-0.02,0.34-0.04,0.67-0.06,1.01l-3.91,0.92l-1.6,0.37c-3.93,0.94-7.68,2.44-11.14,4.46h-0.02
		c-0.64,0.37-1.26,0.75-1.88,1.16c0.47-1.87,0.71-3.82,0.71-5.82c0-13.46-10.91-24.38-24.39-24.38c-13.46,0-24.38,10.91-24.38,24.38
		c0,2,0.24,3.95,0.71,5.82c-0.63-0.41-1.26-0.8-1.91-1.17c-3.48-2.01-7.23-3.51-11.15-4.45l-1.61-0.4l-3.9-0.79
		c-0.02-0.31-0.04-0.62-0.04-0.93c0.97-22.48,19.55-40.49,42.27-40.49C557.84,307.68,576.42,325.6,577.49,347.99z"/>
	<path class="st2" d="M577.27,354.61c-0.15,1.49-0.39,2.95-0.71,4.42l-0.3,1.24c-0.19,0.74-0.38,1.45-0.59,2.17
		c-1.92,6.26-5.34,12.05-9.94,16.86l-0.19,0.17c-0.33,0.3-0.66,0.64-0.94,0.96l-0.19,0.19c-5.39,5.13-12.03,8.75-19.2,10.46
		c-3.15,0.81-6.53,1.24-10.01,1.24c-3.48,0-6.87-0.42-10.06-1.24c-7.18-1.72-13.84-5.36-19.18-10.51l-0.21-0.2l-0.19-0.24
		l-0.26-0.17l-0.16-0.17c-4.83-4.84-8.41-10.81-10.41-17.35c-0.1-0.25-0.17-0.51-0.24-0.77c-0.09-0.26-0.14-0.54-0.19-0.79
		c-0.08-0.19-0.11-0.4-0.18-0.58v-0.03l-1.01-5.66l4.08,0.88l1.6,0.39c3.9,0.92,7.63,2.43,11.06,4.42c1.84,1.06,3.59,2.25,5.24,3.58
		c4.39,6.39,11.76,10.58,20.1,10.58c8.1,0,15.27-3.94,19.7-10.01c1.34-1.12,2.74-2.14,4.19-3.08c0.04-0.02,0.09-0.05,0.12-0.07
		c0.04-0.04,0.08-0.05,0.11-0.07c0.48-0.3,0.95-0.58,1.43-0.86h0.02c0.88-0.51,1.76-0.99,2.66-1.43c0.45-0.22,0.91-0.42,1.36-0.64
		c2.29-1.01,4.68-1.82,7.13-2.4l1.6-0.38L577.27,354.61z"/>
	<circle class="st2" cx="535.95" cy="350.08" r="14.22"/>
</g>
</svg>
