<svg width="587" height="587" viewBox="0 0 587 587" fill="none" xmlns="http://www.w3.org/2000/svg">
<circle cx="293.5" cy="293.5" r="292" stroke="#B7B5B5" stroke-opacity="0.14" stroke-width="3"/>
<path d="M526 282.293C525.897 284.181 525.794 286.051 525.657 287.939L503.757 293.086L494.812 295.163C472.81 300.413 451.784 308.838 432.352 320.215H432.249C428.684 322.291 425.172 324.419 421.71 326.701C424.332 316.2 425.669 305.252 425.669 294.013C425.669 218.445 364.493 157.187 288.974 157.187C213.507 157.187 152.332 218.445 152.332 294.013C152.332 305.252 153.668 316.2 156.29 326.701C152.777 324.367 149.213 322.188 145.614 320.112C126.131 308.821 105.105 300.396 83.1019 295.146L74.1055 292.915L52.2399 288.453C52.1371 286.72 52.0343 284.987 52 283.254C57.4321 157.084 161.585 56 288.94 56C415.867 56.0343 520.02 156.621 526 282.293Z" fill="#666666" fill-opacity="0.4"/>
<path d="M524.835 319.443C523.995 327.816 522.659 335.984 520.825 344.255L519.146 351.238C518.1 355.391 517.021 359.355 515.838 363.421C505.06 398.58 485.919 431.062 460.112 458.053L459.067 458.997C457.233 460.679 455.365 462.566 453.772 464.402L452.726 465.449C422.516 494.225 385.279 514.575 345.112 524.184C327.462 528.749 308.509 531.117 288.974 531.117C269.491 531.117 250.453 528.732 232.597 524.184C192.344 514.524 155.005 494.07 125.085 465.209L123.903 464.076L122.858 462.738L121.418 461.794L120.527 460.85C93.4693 433.67 73.403 400.193 62.1789 363.439C61.6305 362.049 61.2364 360.573 60.8423 359.132C60.3453 357.639 60.054 356.112 59.7456 354.67C59.3 353.624 59.0944 352.44 58.7517 351.41V351.256L53.1139 319.46L76.0077 324.419L84.9527 326.598C106.818 331.746 127.724 340.222 146.968 351.41C157.25 357.347 167.103 364.039 176.339 371.52C200.964 407.366 242.262 430.891 288.992 430.891C334.385 430.891 374.603 408.756 399.416 374.678C406.939 368.38 414.753 362.649 422.91 357.399C423.15 357.296 423.407 357.107 423.595 357.004C423.835 356.798 424.041 356.712 424.246 356.609C426.92 354.928 429.593 353.349 432.266 351.753H432.369C437.321 348.888 442.256 346.211 447.26 343.723C449.779 342.487 452.349 341.338 454.868 340.154C467.669 334.508 481.087 329.944 494.83 326.684L503.775 324.556L524.835 319.443Z" fill="#666666" fill-opacity="0.4"/>
<path d="M288.991 373.854C333.018 373.854 368.708 338.116 368.708 294.03C368.708 249.945 333.018 214.206 288.991 214.206C244.965 214.206 209.275 249.945 209.275 294.03C209.275 338.116 244.965 373.854 288.991 373.854Z" fill="#666666" fill-opacity="0.4"/>
<g filter="url(#filter0_d_126_5640)">
<rect x="188" y="193" width="202" height="202" rx="101" fill="#666666" fill-opacity="0.4" shape-rendering="crispEdges"/>
</g>
<defs>
<filter id="filter0_d_126_5640" x="184" y="193" width="210" height="210" filterUnits="userSpaceOnUse" color-interpolation-filters="sRGB">
<feFlood flood-opacity="0" result="BackgroundImageFix"/>
<feColorMatrix in="SourceAlpha" type="matrix" values="0 0 0 0 0 0 0 0 0 0 0 0 0 0 0 0 0 0 127 0" result="hardAlpha"/>
<feOffset dy="4"/>
<feGaussianBlur stdDeviation="2"/>
<feComposite in2="hardAlpha" operator="out"/>
<feColorMatrix type="matrix" values="0 0 0 0 0 0 0 0 0 0 0 0 0 0 0 0 0 0 0.25 0"/>
<feBlend mode="normal" in2="BackgroundImageFix" result="effect1_dropShadow_126_5640"/>
<feBlend mode="normal" in="SourceGraphic" in2="effect1_dropShadow_126_5640" result="shape"/>
</filter>
</defs>
</svg>
