<svg width="94" height="19" viewBox="0 0 94 19" fill="none" xmlns="http://www.w3.org/2000/svg">
<path d="M61.9064 9.86365L61.9539 9.9232V9.82537L61.9064 9.86365Z" fill="#666666"/>
<path d="M62.772 18.064V18.4851H60.1358C59.6213 18.4256 59.1586 18.1916 58.8094 17.8386C58.3941 17.4197 58.1359 16.8348 58.1359 16.1904V1.88445C58.1359 1.65052 58.0884 1.46975 57.9933 1.33365C57.9871 1.31451 57.9747 1.29537 57.9603 1.27835C57.8404 1.13799 57.6256 1.02316 57.3177 0.935965V0.514885H59.7701C60.9477 0.542531 61.896 1.50378 61.9518 2.70534V9.82325L61.9043 9.86153L61.9518 9.92108V17.1007C61.9518 17.3431 62.0014 17.5302 62.1047 17.6727C62.1109 17.6919 62.1212 17.711 62.1378 17.728C62.2638 17.8726 62.4745 17.9832 62.772 18.064Z" fill="#666666"/>
<path d="M74.6558 18.4851H69.8213L61.9539 10.1635L70.1085 0.514884H74.943L66.7843 10.1635L74.6558 18.4851Z" fill="#666666"/>
<path d="M36.4054 5.46361C36.1637 3.33057 34.701 1.64414 32.8229 1.05506C32.8188 1.05506 32.8147 1.0508 32.8105 1.0508C32.3085 0.946593 31.697 0.878542 30.9697 0.846642C30.666 0.836009 30.3396 0.827503 29.9946 0.827503H19.2863V1.24007C19.59 1.32727 19.7987 1.43998 19.9165 1.58034C20.0322 1.71432 20.0962 1.91847 20.0962 2.18643V16.216C20.1396 16.9539 20.5032 17.6047 21.0528 18.0236C21.3834 18.2788 21.78 18.4468 22.218 18.4872H24.6435V18.0747C24.3977 18.0066 24.2097 17.9237 24.0878 17.811C24.0651 17.7918 24.0403 17.7663 24.0217 17.7429C23.9018 17.6004 23.8399 17.4005 23.8399 17.1432V11.3183H29.9966C30.3272 11.3183 30.6453 11.3119 30.9429 11.2991H30.9552C31.7032 11.263 32.3601 11.1822 32.9159 11.0588C35.1803 10.3081 36.6926 7.99007 36.4054 5.46361ZM32.8705 6.6758C32.8271 6.87571 32.7568 7.06711 32.6659 7.25C32.4862 7.6094 32.2506 7.86885 31.9552 8.03473C31.4965 8.28355 30.6929 8.41115 29.5545 8.41115H23.8378V3.73676H29.5545C30.7032 3.73676 31.5027 3.86011 31.9552 4.11319C32.2486 4.27481 32.4862 4.53638 32.6659 4.89791C32.7506 5.06379 32.8167 5.23606 32.8601 5.42108C32.9138 5.62949 32.9366 5.84428 32.9366 6.0697C32.9366 6.28024 32.9138 6.48015 32.8705 6.6758Z" fill="#666666"/>
<path d="M8.72895 0.514885C3.90892 0.514885 0 4.53851 0 9.5C0 14.4615 3.90892 18.4851 8.72895 18.4851C13.549 18.4851 17.4579 14.4615 17.4579 9.5C17.4579 4.53851 13.549 0.514885 8.72895 0.514885ZM8.65458 14.487C5.98321 14.4445 3.84281 12.1732 3.88413 9.42344C3.92545 6.67368 6.13196 4.47046 8.80333 4.51299C11.4747 4.55552 13.6151 6.82679 13.5738 9.57655C13.5345 12.3284 11.3259 14.5295 8.65458 14.487Z" fill="#666666"/>
<path d="M46.9959 0.514885C42.1758 0.514885 38.269 4.53851 38.269 9.5C38.269 14.4615 42.1758 18.4851 46.9959 18.4851C51.818 18.4851 55.7248 14.4615 55.7248 9.5C55.7248 4.53851 51.818 0.514885 46.9959 0.514885ZM46.9215 14.487C44.2522 14.4445 42.1097 12.1732 42.1531 9.42344C42.1944 6.67368 44.4009 4.47046 47.0723 4.51299C49.7416 4.55552 51.8841 6.82679 51.8407 9.57655C51.7994 12.3284 49.5929 14.5295 46.9215 14.487Z" fill="#666666"/>
<path d="M94 9.07254C93.9959 9.14485 93.9917 9.21503 93.9876 9.28734L93.1798 9.48299L92.8492 9.56168C92.0373 9.76158 91.2625 10.0806 90.5477 10.5102H90.5435C90.4113 10.5888 90.2832 10.6697 90.1551 10.7569C90.2522 10.3592 90.3018 9.94447 90.3018 9.51914C90.3018 6.65666 88.0478 4.33436 85.2628 4.33436C82.4819 4.33436 80.2258 6.65454 80.2258 9.51914C80.2258 9.94447 80.2754 10.3592 80.3725 10.7569C80.2423 10.6697 80.1122 10.5867 79.9779 10.508C79.2589 10.0806 78.4842 9.76158 77.6743 9.56168L77.3416 9.47661L76.5359 9.3086C76.5318 9.24268 76.5276 9.17675 76.5276 9.11083C76.728 4.33011 80.5667 0.5 85.2607 0.5C89.9403 0.5 93.7789 4.31096 94 9.07254Z" fill="#FF7900"/>
<path d="M93.9545 10.4804C93.9236 10.7973 93.874 11.1077 93.8079 11.4204L93.7459 11.6841C93.7066 11.8414 93.6674 11.9924 93.624 12.1456C93.2273 13.4768 92.5207 14.7082 91.5703 15.7311L91.5311 15.7672C91.4629 15.831 91.3947 15.9034 91.3369 15.9714L91.2976 16.0118C90.184 17.1028 88.8122 17.8726 87.3309 18.2363C86.6801 18.4085 85.9818 18.5 85.2628 18.5C84.5438 18.5 83.8434 18.4107 83.1843 18.2363C81.7009 17.8705 80.325 17.0964 79.2217 16.0012L79.1783 15.9586L79.1391 15.9076L79.0854 15.8715L79.0523 15.8353C78.0544 14.806 77.3148 13.5364 76.9016 12.1456C76.8809 12.0924 76.8664 12.0371 76.852 11.9818C76.8334 11.9265 76.8231 11.867 76.8127 11.8138C76.7962 11.7734 76.79 11.7287 76.7755 11.6905V11.6841L76.5669 10.4804L77.4098 10.6675L77.7404 10.7505C78.5461 10.9461 79.3167 11.2672 80.0254 11.6905C80.4055 11.9159 80.7671 12.169 81.108 12.4518C82.015 13.8107 83.5376 14.7018 85.2607 14.7018C86.9342 14.7018 88.4155 13.8639 89.3308 12.573C89.6076 12.3348 89.8969 12.1179 90.1964 11.918C90.2047 11.9138 90.215 11.9074 90.2212 11.9031C90.2295 11.8946 90.2378 11.8925 90.244 11.8882C90.3431 11.8244 90.4402 11.7649 90.5394 11.7053H90.5435C90.7253 11.5969 90.9072 11.4948 91.0931 11.4012C91.1861 11.3544 91.2811 11.3119 91.3741 11.2651C91.8472 11.0503 92.341 10.8781 92.8471 10.7547L93.1777 10.6739L93.9545 10.4804Z" fill="#0C0CAA"/>
<path d="M85.4177 12.5411C87.0403 12.5411 88.3556 11.1872 88.3556 9.51701C88.3556 7.84684 87.0403 6.49291 85.4177 6.49291C83.7952 6.49291 82.4798 7.84684 82.4798 9.51701C82.4798 11.1872 83.7952 12.5411 85.4177 12.5411Z" fill="#0C0CAA"/>
</svg>
