<svg width="134" height="25" viewBox="0 0 134 25" fill="none" xmlns="http://www.w3.org/2000/svg">
<path d="M87.9443 13.0051L88.0118 13.0878V12.9519L87.9443 13.0051Z" fill="white"/>
<path d="M89.1742 24.3946V24.9794H85.4291C84.6983 24.8967 84.0409 24.5718 83.5449 24.0815C82.9549 23.4996 82.588 22.6873 82.588 21.7924V1.92293C82.588 1.59802 82.5205 1.34696 82.3855 1.15792C82.3767 1.13134 82.3591 1.10475 82.3386 1.08112C82.1683 0.886181 81.8631 0.726686 81.4258 0.605585V0.020752H84.9096C86.5826 0.0591499 87.9297 1.39421 88.009 3.06304V12.949L87.9415 13.0022L88.009 13.0849V23.0565C88.009 23.3933 88.0794 23.6532 88.2262 23.8511C88.235 23.8777 88.2497 23.9043 88.2731 23.9279C88.4522 24.1287 88.7515 24.2823 89.1742 24.3946Z" fill="white"/>
<path d="M106.056 24.9794H99.1884L89.8757 15.3504L88.012 13.4216L89.8757 11.2654L99.5964 0.020752H106.464L96.7406 11.2654L94.874 13.4216L106.056 24.9794Z" fill="white"/>
<path d="M51.7176 6.89386C51.3742 3.93132 49.2962 1.58905 46.6283 0.77088C46.6224 0.77088 46.6166 0.764967 46.6107 0.764967C45.8975 0.620237 45.0287 0.525721 43.9956 0.481416C43.5642 0.466648 43.1004 0.454834 42.6103 0.454834H27.3982V1.02785C27.8296 1.14895 28.1261 1.3055 28.2934 1.50044C28.4577 1.68652 28.5487 1.97007 28.5487 2.34223V21.8277C28.6103 22.8526 29.1269 23.7565 29.9076 24.3383C30.3772 24.6928 30.9407 24.9261 31.563 24.9822H35.0086V24.4092C34.6594 24.3147 34.3923 24.1995 34.2191 24.043C34.1868 24.0164 34.1516 23.9809 34.1252 23.9485C33.955 23.7506 33.8669 23.4729 33.8669 23.1155V15.0254H42.6132C43.0828 15.0254 43.5348 15.0165 43.9575 14.9988H43.9751C45.0375 14.9486 45.9709 14.8363 46.7604 14.665C49.9771 13.6224 52.1256 10.4028 51.7176 6.89386ZM46.6958 8.57747C46.6342 8.85512 46.5344 9.12095 46.4052 9.37497C46.1499 9.87414 45.8153 10.2345 45.3956 10.4649C44.744 10.8105 43.6023 10.9877 41.9851 10.9877H33.864V4.49547H41.9851C43.617 4.49547 44.7528 4.66679 45.3956 5.01828C45.8124 5.24276 46.1499 5.60606 46.4052 6.10818C46.5256 6.33857 46.6195 6.57783 46.6811 6.8348C46.7574 7.12426 46.7897 7.42258 46.7897 7.73567C46.7897 8.02808 46.7574 8.30573 46.6958 8.57747Z" fill="white"/>
<path d="M12.4004 0.020752C5.55302 0.020752 0 5.60912 0 12.5001C0 19.391 5.55302 24.9794 12.4004 24.9794C19.2477 24.9794 24.8007 19.391 24.8007 12.5001C24.8007 5.60912 19.2477 0.020752 12.4004 0.020752ZM12.2947 19.4265C8.49976 19.3674 5.4591 16.2129 5.5178 12.3937C5.5765 8.57463 8.71108 5.5146 12.506 5.57368C16.301 5.63275 19.3416 8.78728 19.2829 12.6064C19.2272 16.4285 16.0897 19.4855 12.2947 19.4265Z" fill="white"/>
<path d="M66.7624 0.020752C59.9151 0.020752 54.365 5.60912 54.365 12.5001C54.365 19.391 59.9151 24.9794 66.7624 24.9794C73.6127 24.9794 79.1628 19.391 79.1628 12.5001C79.1628 5.60912 73.6127 0.020752 66.7624 0.020752ZM66.6568 19.4265C62.8647 19.3674 59.8212 16.2129 59.8828 12.3937C59.9415 8.57463 63.0761 5.5146 66.871 5.57368C70.663 5.63275 73.7066 8.78728 73.645 12.6064C73.5863 16.4285 70.4517 19.4855 66.6568 19.4265Z" fill="white"/>
<path d="M133.537 11.9063C133.531 12.0067 133.525 12.1042 133.519 12.2046L132.371 12.4764L131.902 12.5857C130.748 12.8633 129.648 13.3064 128.632 13.903H128.626C128.439 14.0123 128.257 14.1245 128.075 14.2456C128.213 13.6933 128.283 13.1173 128.283 12.5266C128.283 8.55092 125.081 5.3255 121.125 5.3255C117.174 5.3255 113.969 8.54797 113.969 12.5266C113.969 13.1173 114.039 13.6933 114.177 14.2456C113.992 14.1245 113.808 14.0093 113.617 13.9C112.595 13.3064 111.495 12.8633 110.344 12.5857L109.872 12.4675L108.727 12.2342C108.721 12.1426 108.715 12.051 108.715 11.9595C109 5.31959 114.453 0 121.122 0C127.769 0 133.223 5.293 133.537 11.9063Z" fill="white"/>
<path d="M133.472 13.8616C133.428 14.3017 133.357 14.7329 133.264 15.1671L133.176 15.5334C133.12 15.7519 133.064 15.9616 133.002 16.1743C132.439 18.0233 131.435 19.7335 130.085 21.1542L130.029 21.2044C129.932 21.2931 129.835 21.3935 129.753 21.488L129.698 21.5441C128.116 23.0594 126.167 24.1286 124.062 24.6337C123.138 24.8729 122.146 24.9999 121.124 24.9999C120.103 24.9999 119.108 24.8759 118.172 24.6337C116.064 24.1256 114.11 23.0505 112.542 21.5293L112.481 21.4703L112.425 21.3994L112.349 21.3492L112.302 21.299C110.884 19.8694 109.833 18.106 109.246 16.1743C109.217 16.1005 109.197 16.0237 109.176 15.9469C109.15 15.8701 109.135 15.7874 109.12 15.7135C109.097 15.6574 109.088 15.5954 109.067 15.5422V15.5334L108.771 13.8616L109.968 14.1215L110.438 14.2367C111.583 14.5084 112.677 14.9544 113.684 15.5422C114.224 15.8553 114.738 16.2068 115.222 16.5996C116.511 18.4871 118.674 19.7246 121.121 19.7246C123.499 19.7246 125.603 18.5609 126.903 16.768C127.297 16.4372 127.708 16.1359 128.133 15.8583C128.145 15.8524 128.16 15.8435 128.168 15.8376C128.18 15.8258 128.192 15.8228 128.201 15.8169C128.342 15.7283 128.48 15.6456 128.62 15.5629H128.626C128.885 15.4123 129.143 15.2705 129.407 15.1405C129.539 15.0755 129.674 15.0165 129.806 14.9515C130.478 14.6532 131.18 14.4139 131.899 14.2426L132.368 14.1304L133.472 13.8616Z" fill="white"/>
<path d="M121.345 16.7238C123.65 16.7238 125.518 14.8433 125.518 12.5236C125.518 10.204 123.65 8.32349 121.345 8.32349C119.04 8.32349 117.171 10.204 117.171 12.5236C117.171 14.8433 119.04 16.7238 121.345 16.7238Z" fill="white"/>
</svg>
